<svg width="22" height="18" viewBox="0 0 22 18" fill="none" xmlns="http://www.w3.org/2000/svg">
<path d="M14.771 1.3103L21.6065 8.14584C21.833 8.37243 21.9603 8.67972 21.9603 9.00013C21.9603 9.32054 21.833 9.62782 21.6065 9.85442L14.771 16.69C14.5431 16.9101 14.2378 17.0319 13.921 17.0291C13.6042 17.0264 13.3011 16.8993 13.0771 16.6752C12.8531 16.4512 12.726 16.1481 12.7232 15.8313C12.7205 15.5145 12.8423 15.2093 13.0624 14.9814L17.8353 10.2085H1.83333C1.51286 10.2085 1.20552 10.0812 0.978913 9.85455C0.752306 9.62794 0.625 9.3206 0.625 9.00013C0.625 8.67966 0.752306 8.37231 0.978913 8.14571C1.20552 7.9191 1.51286 7.7918 1.83333 7.7918H17.8353L13.0624 3.01888C12.947 2.90741 12.8549 2.77408 12.7916 2.62666C12.7283 2.47924 12.6949 2.32068 12.6935 2.16024C12.6921 1.9998 12.7227 1.84068 12.7835 1.69218C12.8442 1.54369 12.9339 1.40877 13.0474 1.29532C13.1609 1.18187 13.2958 1.09214 13.4443 1.03139C13.5928 0.970631 13.7519 0.940058 13.9123 0.941452C14.0728 0.942846 14.2313 0.976179 14.3787 1.03951C14.5262 1.10283 14.6595 1.19489 14.771 1.3103Z" fill="white"/>
</svg>
