<svg width="16" height="18" viewBox="0 0 16 18" fill="none" xmlns="http://www.w3.org/2000/svg">
<path d="M2.23445 17.6251C1.94665 17.6245 1.66394 17.5491 1.41414 17.4062C0.851641 17.0874 0.501953 16.4687 0.501953 15.797V2.20321C0.501953 1.52961 0.851641 0.912739 1.41414 0.593989C1.66989 0.447006 1.96043 0.37142 2.25539 0.37513C2.55034 0.378841 2.83889 0.461713 3.09086 0.615083L14.7088 7.56946C14.951 7.72128 15.1506 7.93211 15.2889 8.18218C15.4273 8.43225 15.4999 8.71336 15.4999 8.99915C15.4999 9.28494 15.4273 9.56605 15.2889 9.81611C15.1506 10.0662 14.951 10.277 14.7088 10.4288L3.08898 17.3851C2.83112 17.541 2.53577 17.6239 2.23445 17.6251Z" fill="white"/>
</svg>
