<svg width="20" height="18" viewBox="0 0 20 18" fill="none" xmlns="http://www.w3.org/2000/svg">
<path d="M18.822 4.13067L10.8305 16.8568C10.6834 17.0898 10.4527 17.2576 10.1857 17.3258C9.91875 17.394 9.63581 17.3573 9.395 17.2234C9.23529 17.1339 9.10044 17.006 9.00266 16.8513L1.16792 4.12517C0.948407 3.76852 0.832552 3.35779 0.833332 2.939C0.843227 2.32073 1.09798 1.73163 1.54171 1.30097C1.98543 0.870307 2.58187 0.633258 3.20017 0.641834H16.8108C18.1097 0.641834 19.1667 1.66667 19.1667 2.9335C19.1667 3.35517 19.0475 3.7695 18.8211 4.13067M3.09108 3.70533L8.92108 12.6933V2.79875H3.70067C3.0975 2.79875 2.82708 3.19842 3.092 3.70533M11.078 12.6933L16.908 3.70533C17.1766 3.19842 16.9016 2.79875 16.2984 2.79875H11.078V12.6933Z" fill="white"/>
</svg>
