<svg width="20" height="19" viewBox="0 0 20 19" fill="none" xmlns="http://www.w3.org/2000/svg">
<path fill-rule="evenodd" clip-rule="evenodd" d="M14.9683 0.75C15.2659 0.749972 15.5591 0.822399 15.8225 0.961026C16.0858 1.09965 16.3115 1.30031 16.4799 1.54567L16.5597 1.674L19.6158 7.02C19.8024 7.3463 19.8842 7.72207 19.8501 8.0964C19.816 8.47074 19.6676 8.82554 19.4252 9.11275L19.3207 9.2255L10.8112 17.7349C10.6117 17.9345 10.3454 18.0533 10.0636 18.0687C9.7818 18.0841 9.50422 17.995 9.28408 17.8183L9.19058 17.7358L0.681164 9.2255C0.415355 8.95981 0.237623 8.61884 0.172038 8.24878C0.106453 7.87872 0.156185 7.49744 0.314498 7.15658L0.385998 7.01908L3.44125 1.67308C3.58891 1.41465 3.79728 1.19606 4.04834 1.03619C4.2994 0.876322 4.58561 0.779984 4.88225 0.7555L5.03166 0.75H14.9683ZM14.9683 2.58333H5.03166L1.97641 7.93025L10 15.9538L18.0236 7.93025L14.9683 2.58333ZM12.75 3.5C12.9931 3.5 13.2263 3.59658 13.3982 3.76849C13.5701 3.94039 13.6667 4.17355 13.6667 4.41667C13.6667 4.65978 13.5701 4.89294 13.3982 5.06485C13.2263 5.23676 12.9931 5.33333 12.75 5.33333H10.9167V6.74958C11.6115 6.81375 12.2431 6.9485 12.7537 7.14008C13.1157 7.27575 13.4402 7.44808 13.6822 7.6635C13.9242 7.87892 14.125 8.17408 14.125 8.54167C14.125 8.90925 13.9242 9.20533 13.6822 9.41983C13.4402 9.63525 13.1157 9.80758 12.7537 9.94233C12.2092 10.1468 11.5272 10.2879 10.7764 10.3457C10.8681 10.4918 10.9167 10.6608 10.9167 10.8333V12.6667C10.9167 12.9098 10.8201 13.1429 10.6482 13.3148C10.4763 13.4868 10.2431 13.5833 10 13.5833C9.75688 13.5833 9.52372 13.4868 9.35182 13.3148C9.17991 13.1429 9.08333 12.9098 9.08333 12.6667V10.8333C9.08333 10.6537 9.13466 10.4868 9.22358 10.3457C8.47283 10.2879 7.79083 10.1477 7.24633 9.94233C6.88425 9.80758 6.55975 9.63525 6.31775 9.41983C6.07575 9.20442 5.875 8.90925 5.875 8.54167C5.875 8.17408 6.07575 7.878 6.31775 7.6635C6.55975 7.44808 6.88425 7.27575 7.24633 7.141C7.756 6.9485 8.38758 6.81375 9.08333 6.74958V5.33333H7.25C7.00688 5.33333 6.77372 5.23676 6.60182 5.06485C6.42991 4.89294 6.33333 4.65978 6.33333 4.41667C6.33333 4.17355 6.42991 3.94039 6.60182 3.76849C6.77372 3.59658 7.00688 3.5 7.25 3.5H12.75ZM10.9157 7.67083C10.9052 7.90662 10.8041 8.12924 10.6335 8.29236C10.4629 8.45548 10.236 8.54652 10 8.54652C9.76398 8.54652 9.53705 8.45548 9.36647 8.29236C9.19589 8.12924 9.0948 7.90662 9.08425 7.67083C8.5672 7.71637 8.05787 7.8263 7.56808 7.99808C7.26558 8.11175 7.05475 8.2355 6.9255 8.34917C6.81825 8.4445 6.79716 8.50683 6.79258 8.53158L6.79166 8.54167C6.79166 8.55358 6.79625 8.61958 6.9255 8.73417C7.05475 8.84875 7.2665 8.9725 7.56808 9.08433C8.1685 9.30983 9.02741 9.45833 10 9.45833C10.9726 9.45833 11.8315 9.30983 12.4319 9.08433C12.7335 8.97158 12.9452 8.84783 13.0736 8.73417C13.1293 8.69132 13.1734 8.63523 13.2019 8.571L13.2083 8.54167L13.2019 8.51233C13.1734 8.4481 13.1293 8.39201 13.0736 8.34917C12.9452 8.2355 12.7335 8.11083 12.4319 7.999C12.0286 7.84775 11.5079 7.73042 10.9157 7.67083Z" fill="white"/>
</svg>
