<svg width="20" height="20" viewBox="0 0 20 20" fill="none" xmlns="http://www.w3.org/2000/svg">
<path d="M1.38897 5.28613H17.4843L17.5527 5.28809C18.162 5.31096 18.7387 5.56903 19.1618 6.00812C19.5848 6.44721 19.8212 7.03315 19.8214 7.64288V17.0714C19.8214 17.6966 19.5731 18.2962 19.131 18.7382C18.689 19.1803 18.0894 19.4286 17.4643 19.4286H2.53572C1.91056 19.4286 1.31101 19.1803 0.868965 18.7382C0.426915 18.2962 0.178574 17.6966 0.178574 17.0714V7.64288L0.179752 7.56234L0.183681 7.49163C0.15645 7.04775 0.255133 6.60521 0.468366 6.21495C0.681599 5.82469 1.00071 5.50299 1.38897 5.28613ZM13.5357 10.7857C13.1189 10.7857 12.7192 10.9513 12.4245 11.246C12.1298 11.5407 11.9643 11.9404 11.9643 12.3572C11.9643 12.7739 12.1298 13.1736 12.4245 13.4683C12.7192 13.763 13.1189 13.9286 13.5357 13.9286C13.9525 13.9286 14.3522 13.763 14.6469 13.4683C14.9416 13.1736 15.1071 12.7739 15.1071 12.3572C15.1071 11.9404 14.9416 11.5407 14.6469 11.246C14.3522 10.9513 13.9525 10.7857 13.5357 10.7857ZM17.4042 2.31966C17.4575 2.51826 17.4845 2.72297 17.4847 2.92859L17.4843 4.10716H4.66657L14.5175 0.651984C15.1213 0.490244 15.7647 0.574995 16.306 0.887595C16.8474 1.2002 17.2424 1.71504 17.4042 2.31888" fill="white" fill-opacity="0.3"/>
</svg>
