<svg width="18" height="17" viewBox="0 0 18 17" fill="none" xmlns="http://www.w3.org/2000/svg">
<path d="M10.9253 1.47412H8.18799C6.94795 1.47412 5.9652 1.47412 5.19686 1.57816C4.40532 1.68501 3.76492 1.90996 3.26019 2.4168C2.75475 2.92364 2.53051 3.56685 2.42436 4.36121C2.32102 5.13307 2.32102 6.11933 2.32102 7.36428V11.4682C2.32102 12.5283 2.96775 13.4365 3.88653 13.8175C3.83943 13.1778 3.83943 12.2815 3.83943 11.535V8.01312C3.83943 7.11262 3.83943 6.33584 3.92238 5.71442C4.01166 5.04801 4.21271 4.40971 4.72868 3.89163C5.24466 3.37354 5.88085 3.17179 6.54445 3.08181C7.16306 2.99886 7.93632 2.99886 8.83401 2.99886H10.9921C11.8891 2.99886 12.661 2.99886 13.2803 3.08181C13.0948 2.60821 12.7709 2.20151 12.3508 1.91473C11.9307 1.62795 11.434 1.47441 10.9253 1.47412Z" fill="#2D4D7D"/>
<path d="M4.8517 8.07991C4.8517 6.16362 4.8517 5.20547 5.445 4.61006C6.03761 4.01465 6.99153 4.01465 8.90079 4.01465H10.9253C12.8339 4.01465 13.7885 4.01465 14.3818 4.61006C14.9751 5.20547 14.9744 6.16362 14.9744 8.07991V11.4682C14.9744 13.3845 14.9744 14.3426 14.3818 14.9381C13.7885 15.5335 12.8339 15.5335 10.9253 15.5335H8.90079C6.99223 15.5335 6.03761 15.5335 5.445 14.9381C4.8517 14.3426 4.8517 13.3845 4.8517 11.4682V8.07991Z" fill="#2D4D7D"/>
</svg>