<svg width="52" height="21" viewBox="0 0 52 21" fill="none" xmlns="http://www.w3.org/2000/svg">
<path d="M15.5 21H14H12.5H11H9.5H8H6.5H5H3.5H2H0.5V19.5V18V16.5V15V13.5V12V10.5V9V7.5V6V4.5V3V1.5V0H2H3.5H5H6.5H8H9.5H11H12.5H14H15.5V1.5V3H14H12.5H11H9.5H8H6.5H5H3.5V4.5V6H5H6.5H8H9.5V7.5V9H8H6.5H5H3.5V10.5V12V13.5V15V16.5V18H5H6.5H8H9.5H11H12.5H14H15.5V19.5V21ZM27.5 21H26H24.5V19.5V18H26H27.5V19.5V21ZM30.5 18H29H27.5V16.5V15V13.5V12H29H30.5V13.5V15V16.5V18ZM24.5 16.5V18H23H21.5V16.5V15V13.5V12H23H24.5V13.5V15V16.5ZM33.5 12H32H30.5V10.5V9V7.5V6V4.5V3V1.5V0H32H33.5V1.5V3V4.5V6V7.5V9V10.5V12ZM21.5 10.5V12H20H18.5V10.5V9V7.5V6V4.5V3V1.5V0H20H21.5V1.5V3V4.5V6V7.5V9V10.5ZM39.5 21H38H36.5V19.5V18V16.5V15V13.5V12V10.5V9V7.5V6V4.5V3V1.5V0H38H39.5H41H42.5H44H45.5H47H48.5V1.5V3H50H51.5V4.5V6H50H48.5V4.5V3H47H45.5H44H42.5H41H39.5V4.5V6H41H42.5H44H45.5H47H48.5V7.5V9H47H45.5H44H42.5H41H39.5V10.5V12V13.5V15V16.5V18V19.5V21Z" fill="white"/>
</svg>
