<svg width="19" height="20" viewBox="0 0 19 20" fill="none" xmlns="http://www.w3.org/2000/svg">
<g id="bi:people-fill" clip-path="url(#clip0_283_237)">
<path id="Vector" d="M8.21011 17.1117C8.21011 17.1117 7.03723 17.1117 7.03723 15.9388C7.03723 14.766 8.21011 11.2473 12.9016 11.2473C17.5931 11.2473 18.766 14.766 18.766 15.9388C18.766 17.1117 17.5931 17.1117 17.5931 17.1117H8.21011ZM12.9016 10.0745C13.8348 10.0745 14.7298 9.70375 15.3896 9.04389C16.0495 8.38402 16.4202 7.48904 16.4202 6.55585C16.4202 5.62265 16.0495 4.72768 15.3896 4.06781C14.7298 3.40794 13.8348 3.03723 12.9016 3.03723C11.9684 3.03723 11.0734 3.40794 10.4136 4.06781C9.75369 4.72768 9.38298 5.62265 9.38298 6.55585C9.38298 7.48904 9.75369 8.38402 10.4136 9.04389C11.0734 9.70375 11.9684 10.0745 12.9016 10.0745ZM6.1177 17.1117C5.94391 16.7455 5.8572 16.3441 5.86436 15.9388C5.86436 14.3496 6.66191 12.7134 8.13504 11.5757C7.39986 11.3487 6.63374 11.2379 5.86436 11.2473C1.17287 11.2473 0 14.766 0 15.9388C0 17.1117 1.17287 17.1117 1.17287 17.1117H6.1177ZM5.27793 10.0745C6.05559 10.0745 6.8014 9.76554 7.35129 9.21565C7.90118 8.66576 8.21011 7.91995 8.21011 7.14228C8.21011 6.36462 7.90118 5.61881 7.35129 5.06892C6.8014 4.51903 6.05559 4.2101 5.27793 4.2101C4.50026 4.2101 3.75445 4.51903 3.20456 5.06892C2.65467 5.61881 2.34574 6.36462 2.34574 7.14228C2.34574 7.91995 2.65467 8.66576 3.20456 9.21565C3.75445 9.76554 4.50026 10.0745 5.27793 10.0745Z" fill="white"/>
</g>
<defs>
<clipPath id="clip0_283_237">
<rect width="18.766" height="18.766" fill="white" transform="translate(0 0.691528)"/>
</clipPath>
</defs>
</svg>
