<svg width="94" height="83" viewBox="0 0 94 83" fill="none" xmlns="http://www.w3.org/2000/svg">
<g filter="url(#filter0_b_304_433)">
<path d="M54.1184 78.9722C51.0603 84.3177 43.3624 84.3482 40.2621 79.0271L1.89574 13.1786C-1.20457 7.85749 2.61799 1.17562 8.77634 1.15122L84.986 0.849245C91.1443 0.824843 95.0197 7.4762 91.9617 12.8217L54.1184 78.9722Z" fill="url(#paint0_radial_304_433)" fill-opacity="0.5"/>
<path d="M53.6844 78.7239C50.8175 83.7353 43.6006 83.7639 40.6941 78.7754L2.32776 12.9269C-0.578782 7.93834 3.00487 1.6741 8.77832 1.65122L84.988 1.34924C90.7614 1.32636 94.3946 7.56202 91.5277 12.5734L53.6844 78.7239Z" stroke="#2E81FF" stroke-opacity="0.1"/>
<path d="M53.6844 78.7239C50.8175 83.7353 43.6006 83.7639 40.6941 78.7754L2.32776 12.9269C-0.578782 7.93834 3.00487 1.6741 8.77832 1.65122L84.988 1.34924C90.7614 1.32636 94.3946 7.56202 91.5277 12.5734L53.6844 78.7239Z" stroke="#95BFFF"/>
</g>
<defs>
<filter id="filter0_b_304_433" x="-18.8039" y="-18.7508" width="131.434" height="121.35" filterUnits="userSpaceOnUse" color-interpolation-filters="sRGB">
<feFlood flood-opacity="0" result="BackgroundImageFix"/>
<feGaussianBlur in="BackgroundImageFix" stdDeviation="9.8"/>
<feComposite in2="SourceAlpha" operator="in" result="effect1_backgroundBlur_304_433"/>
<feBlend mode="normal" in="SourceGraphic" in2="effect1_backgroundBlur_304_433" result="shape"/>
</filter>
<radialGradient id="paint0_radial_304_433" cx="0" cy="0" r="1" gradientUnits="userSpaceOnUse" gradientTransform="translate(47 31) rotate(-90.227) scale(60)">
<stop stop-color="#008CFF"/>
<stop offset="1" stop-color="#005499"/>
</radialGradient>
</defs>
</svg>