<svg width="20" height="21" viewBox="0 0 20 21" fill="none" xmlns="http://www.w3.org/2000/svg">
<g clip-path="url(#clip0_283_46)">
<path d="M10 0.453979C4.64813 0.453979 0.3125 4.79023 0.3125 10.1415C0.3125 15.4927 4.64875 19.829 10 19.829C15.3512 19.829 19.6875 15.4927 19.6875 10.1415C19.6875 4.79023 15.3512 0.453979 10 0.453979ZM14.7581 7.09085L13.1681 14.5834C13.0506 15.1146 12.7344 15.2434 12.2931 14.9934L9.87125 13.2084L8.70312 14.3334C8.57438 14.4621 8.465 14.5715 8.215 14.5715L8.38688 12.1065L12.875 8.05148C13.0706 7.8796 12.8319 7.7821 12.5737 7.95398L7.02688 11.4459L4.63625 10.6996C4.11688 10.5359 4.105 10.1802 4.74563 9.93023L14.0856 6.32835C14.5194 6.1721 14.8981 6.43398 14.7575 7.09023L14.7581 7.09085Z" fill="white" fill-opacity="0.5"/>
</g>
<defs>
<clipPath id="clip0_283_46">
<rect width="20" height="20" fill="white" transform="translate(0 0.141479)"/>
</clipPath>
</defs>
</svg>