<svg width="281" height="291" viewBox="0 0 281 291" fill="none" xmlns="http://www.w3.org/2000/svg">
<path d="M196 49.5008L168 98.4312H112L84 49.5008L112 0.570312L168 0.570315L196 49.5008Z" fill="black" fill-opacity="0.8"/>
<path d="M281 97.5008L252.75 146.431L196.25 146.431L168 97.5007L196.25 48.5703L252.75 48.5703L281 97.5008Z" fill="black" fill-opacity="0.8"/>
<path d="M280 193.001L252.25 240.632H196.75L169 193.001L196.75 145.369H252.25L280 193.001Z" fill="black" fill-opacity="0.8"/>
<path d="M196 241.501L168 290.431H112L84 241.501L112 192.57H168L196 241.501Z" fill="black" fill-opacity="0.8"/>
<path d="M112 192.001L84.25 239.632H28.75L1 192.001L28.75 144.369H84.25L112 192.001Z" fill="black" fill-opacity="0.8"/>
<path d="M113 96.5008L84.75 145.431L28.25 145.431L0 96.5007L28.25 47.5703L84.75 47.5703L113 96.5008Z" fill="black" fill-opacity="0.8"/>
</svg>
