<svg width="40" height="40" viewBox="0 0 40 40" fill="none" xmlns="http://www.w3.org/2000/svg">
<mask id="mask0_77_3041" style="mask-type:alpha" maskUnits="userSpaceOnUse" x="0" y="0" width="40" height="40">
<path d="M7.34158 24.1781L13.0035 18.5161L17.7113 23.2241L22.9659 17.9695L19.9816 14.9853H28.304V23.3076L25.3198 20.3234L17.7113 27.9318L13.0035 23.2241L8.88536 27.3421C11.2709 30.9299 15.3501 33.2944 19.9816 33.2944C27.3358 33.2944 33.2974 27.3328 33.2974 19.9787C33.2974 12.6246 27.3358 6.66293 19.9816 6.66293C12.6275 6.66293 6.66585 12.6246 6.66585 19.9787C6.66585 21.4461 6.90319 22.8579 7.34158 24.1781ZM4.78167 26.7717L4.76481 26.7549L4.77125 26.7484C3.84937 24.6801 3.33691 22.3893 3.33691 19.9787C3.33691 10.7861 10.789 3.33398 19.9816 3.33398C29.1742 3.33398 36.6264 10.7861 36.6264 19.9787C36.6264 29.1714 29.1742 36.6234 19.9816 36.6234C13.2087 36.6234 7.38054 32.578 4.78167 26.7717Z" fill="black"/>
</mask>
<g mask="url(#mask0_77_3041)">
<rect x="-36.3159" y="-14.9297" width="122.666" height="80.7016" fill="white"/>
</g>
</svg>
