<svg width="41" height="41" viewBox="0 0 41 41" fill="none" xmlns="http://www.w3.org/2000/svg">
<mask id="mask0_77_3053" style="mask-type:alpha" maskUnits="userSpaceOnUse" x="0" y="0" width="41" height="41">
<path d="M11.7744 8.40975V3.36367C11.7744 2.43472 12.5275 1.68164 13.4564 1.68164H26.9127C27.8416 1.68164 28.5947 2.43472 28.5947 3.36367V8.40975H35.3228C36.2518 8.40975 37.0048 9.16283 37.0048 10.0918V33.6402C37.0048 34.5692 36.2518 35.3222 35.3228 35.3222H5.04629C4.11734 35.3222 3.36426 34.5692 3.36426 33.6402V10.0918C3.36426 9.16283 4.11734 8.40975 5.04629 8.40975H11.7744ZM15.1385 21.866H6.72831V31.9581H33.6408V21.866H25.2306V26.9121H15.1385V21.866ZM33.6408 11.7738H6.72831V18.5019H15.1385V15.1379H25.2306V18.5019H33.6408V11.7738ZM18.5025 18.5019V23.548H21.8666V18.5019H18.5025ZM15.1385 5.0457V8.40975H25.2306V5.0457H15.1385Z" fill="black"/>
</mask>
<g mask="url(#mask0_77_3053)">
<rect x="-11.1362" y="-24.5918" width="63.5691" height="77.4893" fill="white"/>
</g>
</svg>
