<svg width="40" height="46" viewBox="0 0 40 46" fill="none" xmlns="http://www.w3.org/2000/svg">
<path fill-rule="evenodd" clip-rule="evenodd" d="M5.9999 20.1996V14.5996C5.9999 10.8866 7.4749 7.32562 10.1004 4.70011C12.7259 2.07461 16.2869 0.599609 19.9999 0.599609C23.7129 0.599609 27.2739 2.07461 29.8994 4.70011C32.5249 7.32562 33.9999 10.8866 33.9999 14.5996V20.1996C35.4851 20.1996 36.9095 20.7896 37.9597 21.8398C39.0099 22.89 39.5999 24.3144 39.5999 25.7996V39.7996C39.5999 41.2848 39.0099 42.7092 37.9597 43.7594C36.9095 44.8096 35.4851 45.3996 33.9999 45.3996H5.9999C4.51469 45.3996 3.09031 44.8096 2.0401 43.7594C0.989901 42.7092 0.399902 41.2848 0.399902 39.7996V25.7996C0.399902 24.3144 0.989901 22.89 2.0401 21.8398C3.09031 20.7896 4.51469 20.1996 5.9999 20.1996ZM28.3999 14.5996V20.1996H11.5999V14.5996C11.5999 12.3718 12.4849 10.2352 14.0602 8.65991C15.6355 7.08461 17.7721 6.19961 19.9999 6.19961C22.2277 6.19961 24.3643 7.08461 25.9396 8.65991C27.5149 10.2352 28.3999 12.3718 28.3999 14.5996Z" fill="white"/>
</svg>
