<svg width="44" height="44" viewBox="0 0 44 44" fill="none" xmlns="http://www.w3.org/2000/svg">
<mask id="mask0_77_3045" style="mask-type:alpha" maskUnits="userSpaceOnUse" x="0" y="0" width="44" height="44">
<path d="M21.5313 19.7365C26.4861 19.7365 30.5028 23.7532 30.5028 28.708V39.4737H26.9142V28.708C26.9142 25.8412 24.6733 23.4979 21.8476 23.3343L21.5313 23.3251C18.6646 23.3251 16.3213 25.566 16.1576 28.3916L16.1484 28.708V39.4737H12.5598V28.708C12.5598 23.7532 16.5765 19.7365 21.5313 19.7365ZM9.8684 25.1194C10.3687 25.1194 10.8554 25.1779 11.322 25.2884C11.0204 26.1852 10.835 27.1326 10.7816 28.1146L10.7655 28.708L10.7668 28.8616C10.5638 28.7898 10.3496 28.7415 10.1276 28.7204L9.8684 28.708C8.46939 28.708 7.3197 29.7754 7.18929 31.1401L7.17696 31.3994V39.4737H3.58838V31.3994C3.58838 27.9311 6.40003 25.1194 9.8684 25.1194ZM33.1942 25.1194C36.6626 25.1194 39.4742 27.9311 39.4742 31.3994V39.4737H35.8856V31.3994C35.8856 30.0004 34.8182 28.8508 33.4535 28.7204L33.1942 28.708C32.8798 28.708 32.578 28.7618 32.2976 28.8609L32.2971 28.708C32.2971 27.5135 32.1026 26.3646 31.7435 25.2909C32.2072 25.1779 32.6938 25.1194 33.1942 25.1194ZM9.8684 14.3536C12.3458 14.3536 14.3541 16.362 14.3541 18.8394C14.3541 21.3168 12.3458 23.3251 9.8684 23.3251C7.391 23.3251 5.38267 21.3168 5.38267 18.8394C5.38267 16.362 7.391 14.3536 9.8684 14.3536ZM33.1942 14.3536C35.6716 14.3536 37.6799 16.362 37.6799 18.8394C37.6799 21.3168 35.6716 23.3251 33.1942 23.3251C30.7168 23.3251 28.7085 21.3168 28.7085 18.8394C28.7085 16.362 30.7168 14.3536 33.1942 14.3536ZM9.8684 17.9422C9.37293 17.9422 8.97126 18.344 8.97126 18.8394C8.97126 19.3348 9.37293 19.7365 9.8684 19.7365C10.3639 19.7365 10.7655 19.3348 10.7655 18.8394C10.7655 18.344 10.3639 17.9422 9.8684 17.9422ZM33.1942 17.9422C32.6988 17.9422 32.2971 18.344 32.2971 18.8394C32.2971 19.3348 32.6988 19.7365 33.1942 19.7365C33.6896 19.7365 34.0913 19.3348 34.0913 18.8394C34.0913 18.344 33.6896 17.9422 33.1942 17.9422ZM21.5313 3.58789C25.4951 3.58789 28.7085 6.80122 28.7085 10.7651C28.7085 14.7289 25.4951 17.9422 21.5313 17.9422C17.5675 17.9422 14.3541 14.7289 14.3541 10.7651C14.3541 6.80122 17.5675 3.58789 21.5313 3.58789ZM21.5313 7.17647C19.5493 7.17647 17.9427 8.78314 17.9427 10.7651C17.9427 12.747 19.5493 14.3536 21.5313 14.3536C23.5133 14.3536 25.1199 12.747 25.1199 10.7651C25.1199 8.78314 23.5133 7.17647 21.5313 7.17647Z" fill="black"/>
</mask>
<g mask="url(#mask0_77_3045)">
<rect x="-7.51904" y="-5.81055" width="59.1262" height="52.6326" fill="white"/>
</g>
</svg>
