<svg width="41" height="41" viewBox="0 0 41 41" fill="none" xmlns="http://www.w3.org/2000/svg">
<mask id="mask0_77_3049" style="mask-type:alpha" maskUnits="userSpaceOnUse" x="0" y="0" width="41" height="41">
<path d="M33.7809 25.5661L35.8029 26.7794C36.2012 27.0184 36.3302 27.5349 36.0914 27.9332C36.0202 28.0517 35.9213 28.1507 35.8029 28.2217L21.0498 37.0734C20.5173 37.3931 19.8517 37.3931 19.3192 37.0734L4.56616 28.2217C4.16787 27.9827 4.03872 27.4661 4.27769 27.0678C4.34872 26.9494 4.44778 26.8503 4.56616 26.7794L6.58811 25.5661L20.1846 33.724L33.7809 25.5661ZM33.7809 17.6606L35.8029 18.8738C36.2012 19.1128 36.3302 19.6294 36.0914 20.0277C36.0202 20.1461 35.9213 20.2452 35.8029 20.3162L20.1846 29.6871L4.56616 20.3162C4.16787 20.0772 4.03872 19.5606 4.27769 19.1623C4.34872 19.0439 4.44778 18.9448 4.56616 18.8738L6.58811 17.6606L20.1846 25.8184L33.7809 17.6606ZM21.0498 2.20063L35.8029 11.0524C36.2012 11.2914 36.3302 11.808 36.0914 12.2063C36.0202 12.3246 35.9213 12.4237 35.8029 12.4947L20.1846 21.8657L4.56616 12.4947C4.16787 12.2558 4.03872 11.7392 4.27769 11.3409C4.34872 11.2225 4.44778 11.1234 4.56616 11.0524L19.3192 2.20063C19.8517 1.88104 20.5173 1.88104 21.0498 2.20063ZM20.1846 5.60453L9.90276 11.7736L20.1846 17.9427L30.4663 11.7736L20.1846 5.60453Z" fill="black"/>
</mask>
<g mask="url(#mask0_77_3049)">
<rect x="-16.1475" y="-7.68945" width="74.5859" height="63.4365" fill="white"/>
</g>
</svg>
