<svg width="45" height="48" viewBox="0 0 45 48" fill="none" xmlns="http://www.w3.org/2000/svg">
<mask id="mask0_77_3037" style="mask-type:alpha" maskUnits="userSpaceOnUse" x="0" y="0" width="45" height="48">
<path d="M22.0055 4.73148C23.8393 3.42746 26.2216 3.40043 28.081 4.66253L35.79 9.89531H38.9603C39.985 9.89531 40.8156 10.7813 40.8156 11.8743V29.6848C40.8156 30.7778 39.985 31.6638 38.9603 31.6638H36.1408C36.2512 33.5385 35.4232 35.4442 33.7575 36.5103L24.3079 42.5582C23.115 43.3214 21.6341 43.3036 20.4662 42.5431C19.1669 43.7687 17.1669 43.9036 15.716 42.6876L6.17848 34.6942C4.75658 33.5026 4.39701 31.4667 5.1312 29.8526C4.23453 29.1026 3.71045 27.9542 3.71045 26.7382V11.8744C3.71045 10.7815 4.54109 9.89543 5.56572 9.89543H14.7436L22.0055 4.73148ZM7.74129 27.0039L9.0252 25.8057C11.3076 23.6753 14.7687 23.8863 16.8087 26.28L21.822 32.1623C23.4352 34.0552 23.7294 36.836 22.5561 39.0633L31.8485 33.1163C32.3705 32.7823 32.5594 32.1144 32.3648 31.5518L24.1513 19.2866C23.6899 18.5976 22.8688 18.2981 22.1085 18.5413L17.4976 20.0168C15.5364 20.6443 13.4105 20.0726 11.9627 18.5283L11.4195 17.949C10.3657 16.8249 10.0932 15.2251 10.5367 13.8534H7.421V26.7382L7.74129 27.0039ZM26.089 8.00169C25.4691 7.58098 24.6751 7.58999 24.0637 8.02466L14.0433 15.1503L14.5864 15.7297C15.0691 16.2445 15.7777 16.435 16.4314 16.2258L21.0422 14.7504C23.3231 14.0205 25.7867 14.9192 27.1708 16.9861L34.3492 27.7059H37.105V13.8532H35.79C35.0843 13.8532 34.3932 13.6386 33.7978 13.2345L26.089 8.00169ZM11.4686 28.7842L8.47095 31.5821L18.0085 39.5755L19.3144 37.1376C19.7133 36.3931 19.6172 35.4592 19.0764 34.8246L14.0631 28.9423C13.3831 28.1444 12.2294 28.0742 11.4686 28.7842Z" fill="black"/>
</mask>
<g mask="url(#mask0_77_3037)">
<rect x="-9.22607" y="-2.13867" width="59.3688" height="55.1969" fill="white"/>
</g>
</svg>
