<svg width="10" height="11" viewBox="0 0 10 11" fill="none" xmlns="http://www.w3.org/2000/svg">
<path d="M2.97335 10.0331C3.2151 10.3357 3.52315 10.58 3.87424 10.7475C4.22533 10.915 4.61027 11.0013 5 11C5.38973 11.0013 5.77467 10.915 6.12576 10.7475C6.47685 10.58 6.7849 10.3357 7.02665 10.0331C5.68168 10.2133 4.31832 10.2133 2.97335 10.0331ZM8.74997 3.84999V4.23719C8.74997 4.70194 8.88331 5.15624 9.13442 5.54289L9.74997 6.49054C10.3116 7.35624 9.88274 8.53269 8.90553 8.80604C6.35205 9.52194 3.64795 9.52194 1.09447 8.80604C0.117256 8.53269 -0.31163 7.35624 0.250033 6.49054L0.865584 5.54289C1.11737 5.15305 1.25098 4.69992 1.25058 4.23719V3.84999C1.25058 1.7237 2.92946 0 5 0C7.07054 0 8.74997 1.7237 8.74997 3.84999Z" fill="white"/>
</svg>
