<svg width="12" height="12" viewBox="0 0 12 12" fill="none" xmlns="http://www.w3.org/2000/svg">
<path d="M4.66667 0H0.666667C0.489856 0 0.320286 0.0702379 0.195262 0.195262C0.0702379 0.320286 0 0.489856 0 0.666667V4.66667C0 4.84348 0.0702379 5.01305 0.195262 5.13807C0.320286 5.2631 0.489856 5.33333 0.666667 5.33333H4.66667C4.84348 5.33333 5.01305 5.2631 5.13807 5.13807C5.2631 5.01305 5.33333 4.84348 5.33333 4.66667V0.666667C5.33333 0.489856 5.2631 0.320286 5.13807 0.195262C5.01305 0.0702379 4.84348 0 4.66667 0ZM11.3333 0H7.33333C7.15652 0 6.98695 0.0702379 6.86193 0.195262C6.73691 0.320286 6.66667 0.489856 6.66667 0.666667V4.66667C6.66667 4.84348 6.73691 5.01305 6.86193 5.13807C6.98695 5.2631 7.15652 5.33333 7.33333 5.33333H11.3333C11.5101 5.33333 11.6797 5.2631 11.8047 5.13807C11.9298 5.01305 12 4.84348 12 4.66667V0.666667C12 0.489856 11.9298 0.320286 11.8047 0.195262C11.6797 0.0702379 11.5101 0 11.3333 0ZM4.66667 6.66667H0.666667C0.489856 6.66667 0.320286 6.73691 0.195262 6.86193C0.0702379 6.98695 0 7.15652 0 7.33333V11.3333C0 11.5101 0.0702379 11.6797 0.195262 11.8047C0.320286 11.9298 0.489856 12 0.666667 12H4.66667C4.84348 12 5.01305 11.9298 5.13807 11.8047C5.2631 11.6797 5.33333 11.5101 5.33333 11.3333V7.33333C5.33333 7.15652 5.2631 6.98695 5.13807 6.86193C5.01305 6.73691 4.84348 6.66667 4.66667 6.66667ZM9.33333 6.66667C9.85507 6.66667 10.3653 6.81972 10.801 7.10686C11.2366 7.39401 11.5784 7.80263 11.7841 8.28212C11.9897 8.76161 12.0502 9.2909 11.9581 9.80443C11.8659 10.318 11.6251 10.7932 11.2655 11.1712C10.9059 11.5492 10.4434 11.8135 9.93507 11.9312C9.42679 12.049 8.89514 12.015 8.40596 11.8336C7.91679 11.6521 7.49159 11.3312 7.18303 10.9104C6.87446 10.4897 6.69609 9.98775 6.67 9.46667L6.66667 9.33333L6.67 9.2C6.70421 8.51669 6.99974 7.87267 7.49546 7.40115C7.99118 6.92962 8.64917 6.66667 9.33333 6.66667Z" fill="white"/>
</svg>
