<svg width="14" height="12" viewBox="0 0 14 12" fill="none" xmlns="http://www.w3.org/2000/svg">
<path d="M7 0.0019989C6.73762 0.0019989 6.47781 0.0536786 6.2354 0.154088C5.99299 0.254496 5.77273 0.401668 5.5872 0.587199C5.40167 0.772731 5.2545 0.992989 5.15409 1.2354C5.05368 1.47781 5.002 1.73762 5.002 2C5.002 2.26238 5.05368 2.52219 5.15409 2.7646C5.2545 3.00701 5.40167 3.22727 5.5872 3.4128C5.77273 3.59833 5.99299 3.7455 6.2354 3.84591C6.47781 3.94632 6.73762 3.998 7 3.998C7.5299 3.998 8.0381 3.7875 8.4128 3.4128C8.7875 3.0381 8.998 2.5299 8.998 2C8.998 1.4701 8.7875 0.961897 8.4128 0.587199C8.0381 0.212502 7.5299 0.0019989 7 0.0019989ZM11.5 0.999999C11.1022 0.999999 10.7206 1.15803 10.4393 1.43934C10.158 1.72064 10 2.10217 10 2.5C10 2.89782 10.158 3.27935 10.4393 3.56066C10.7206 3.84196 11.1022 4 11.5 4C11.8978 4 12.2794 3.84196 12.5607 3.56066C12.842 3.27935 13 2.89782 13 2.5C13 2.10217 12.842 1.72064 12.5607 1.43934C12.2794 1.15803 11.8978 0.999999 11.5 0.999999ZM2.5 0.999999C2.10218 0.999999 1.72064 1.15803 1.43934 1.43934C1.15804 1.72064 1 2.10217 1 2.5C1 2.89782 1.15804 3.27935 1.43934 3.56066C1.72064 3.84196 2.10218 4 2.5 4C2.89783 4 3.27936 3.84196 3.56066 3.56066C3.84197 3.27935 4 2.89782 4 2.5C4 2.10217 3.84197 1.72064 3.56066 1.43934C3.27936 1.15803 2.89783 0.999999 2.5 0.999999ZM4 5.993C4.00185 5.729 4.10802 5.47644 4.29536 5.29041C4.48269 5.10439 4.73599 4.99999 5 5H9C9.26522 5 9.51957 5.10536 9.70711 5.29289C9.89464 5.48043 10 5.73478 10 6V9C10.0003 9.31474 9.95099 9.62757 9.854 9.927C9.63257 10.6057 9.17644 11.1832 8.56751 11.5559C7.95859 11.9286 7.23675 12.0719 6.53163 11.9603C5.8265 11.8486 5.18428 11.4892 4.72028 10.9467C4.25628 10.4041 4.0009 9.71391 4 9V5.993ZM3 6C3 5.635 3.097 5.294 3.268 5H1C0.734784 5 0.48043 5.10536 0.292893 5.29289C0.105357 5.48043 1.38413e-07 5.73478 1.38413e-07 6V8.5C-0.000136048 8.9093 0.100226 9.31238 0.292273 9.67384C0.48432 10.0353 0.762177 10.3441 1.10144 10.573C1.44071 10.802 1.831 10.9442 2.23806 10.9871C2.64511 11.03 3.05646 10.9722 3.436 10.819C3.14879 10.2553 2.99937 9.63161 3 8.999V6ZM11 6V9C11 9.655 10.843 10.273 10.564 10.819C10.9435 10.9722 11.3549 11.03 11.7619 10.9871C12.169 10.9442 12.5593 10.802 12.8986 10.573C13.2378 10.3441 13.5157 10.0353 13.7077 9.67384C13.8998 9.31238 14.0001 8.9093 14 8.5V6C14 5.73478 13.8946 5.48043 13.7071 5.29289C13.5196 5.10536 13.2652 5 13 5H10.732C10.902 5.294 11 5.635 11 6Z" fill="white"/>
</svg>
