<svg width="30" height="30" viewBox="0 0 30 30" fill="currentColor" xmlns="http://www.w3.org/2000/svg">
<g clip-path="url(#clip0_77_461)">
<path d="M28.2938 23.9813C28.532 23.7957 28.7219 23.5554 28.8474 23.2807C28.9728 23.006 29.03 22.7051 29.0142 22.4036C28.9984 22.102 28.9099 21.8088 28.7564 21.5487C28.6029 21.2887 28.3889 21.0696 28.1325 20.91L28.125 9.99375L26.25 11.25V20.9062C25.9962 21.0655 25.7843 21.2831 25.6319 21.5411C25.4796 21.7991 25.3913 22.0898 25.3744 22.3889C25.3575 22.688 25.4125 22.9868 25.5349 23.2602C25.6572 23.5337 25.8433 23.7739 26.0775 23.9606L25.3687 24.9019C24.7384 25.7038 24.3892 26.6907 24.375 27.7106V30.0019H25.9031C26.2702 30.0018 26.6268 29.8794 26.9165 29.6539C27.2062 29.4284 27.4124 29.1127 27.5025 28.7569L28.1231 26.2519V30.0019H29.9981V27.7331C29.9819 26.7083 29.6302 25.7171 28.9969 24.9113L28.2938 23.9813ZM15 0L0 7.5L15 16.875L30 7.5L15 0Z" fill="white"/>
<path d="M15 18.7496L5.625 12.5059V15.7121C5.625 17.4184 11.1375 22.4996 15 22.4996C18.8625 22.4996 24.375 17.4184 24.375 15.7121V12.5059L15 18.7496Z" fill="white"/>
</g>
<defs>
<clipPath id="clip0_77_461">
<rect width="30" height="30" fill="white"/>
</clipPath>
</defs>
</svg>
