<svg width="24" height="24" viewBox="0 0 24 24" fill="currentColor" xmlns="http://www.w3.org/2000/svg">
<path d="M12 9.33333C12.6128 9.33333 13.2197 9.21263 13.7859 8.97811C14.352 8.74358 14.8665 8.39984 15.2998 7.9665C15.7332 7.53316 16.0769 7.01871 16.3114 6.45252C16.546 5.88634 16.6667 5.2795 16.6667 4.66667C16.6667 4.05383 16.546 3.447 16.3114 2.88081C16.0769 2.31462 15.7332 1.80018 15.2998 1.36684C14.8665 0.933495 14.352 0.589751 13.7859 0.355229C13.2197 0.120707 12.6128 -1.29145e-08 12 0C10.7623 2.60821e-08 9.57534 0.491666 8.70017 1.36684C7.825 2.24201 7.33333 3.42899 7.33333 4.66667C7.33333 5.90434 7.825 7.09133 8.70017 7.9665C9.57534 8.84167 10.7623 9.33333 12 9.33333ZM0 23.2V24H24V23.2C24 20.2133 24 18.72 23.4187 17.5787C22.9073 16.5752 22.0915 15.7593 21.088 15.248C19.9467 14.6667 18.4533 14.6667 15.4667 14.6667H8.53333C5.54667 14.6667 4.05333 14.6667 2.912 15.248C1.90851 15.7593 1.09265 16.5752 0.581334 17.5787C1.58946e-07 18.72 0 20.2133 0 23.2Z" fill="white" />
</svg>
