<svg width="32" height="32" viewBox="0 0 32 32" fill="currentColor" xmlns="http://www.w3.org/2000/svg">
<g clip-path="url(#clip0_77_467)">
<path d="M26.0354 4.40047H19.6354C19.3796 3.6401 18.8916 2.97922 18.2401 2.51104C17.5886 2.04286 16.8066 1.79102 16.0043 1.79102C15.2021 1.79102 14.4201 2.04286 13.7686 2.51104C13.1171 2.97922 12.629 3.6401 12.3732 4.40047H6.22211C6.00443 4.36899 5.78254 4.38402 5.57109 4.44459C5.35965 4.50516 5.16345 4.60988 4.99544 4.75184C4.82744 4.8938 4.69145 5.06978 4.59646 5.26816C4.50146 5.46654 4.44961 5.6828 4.44434 5.90269V28.676C4.4455 28.8745 4.48574 29.0707 4.56276 29.2536C4.63977 29.4365 4.75206 29.6024 4.89321 29.7419C5.03435 29.8814 5.20159 29.9918 5.38538 30.0666C5.56916 30.1415 5.76589 30.1794 5.96434 30.1782H26.0354C26.2339 30.1794 26.4306 30.1415 26.6144 30.0666C26.7982 29.9918 26.9654 29.8814 27.1066 29.7419C27.2477 29.6024 27.36 29.4365 27.437 29.2536C27.514 29.0707 27.5543 28.8745 27.5554 28.676V5.90269C27.5543 5.70425 27.514 5.50798 27.437 5.32509C27.36 5.1422 27.2477 4.97627 27.1066 4.83677C26.9654 4.69728 26.7982 4.58695 26.6144 4.51209C26.4306 4.43723 26.2339 4.3993 26.0354 4.40047ZM10.0354 7.06714C10.0354 6.83139 10.1291 6.6053 10.2958 6.4386C10.4625 6.2719 10.6886 6.17825 10.9243 6.17825H13.9821V5.61825C13.9821 5.07249 14.1989 4.54909 14.5848 4.16318C14.9707 3.77727 15.4941 3.56047 16.0399 3.56047C16.5856 3.56047 17.1091 3.77727 17.495 4.16318C17.8809 4.54909 18.0977 5.07249 18.0977 5.61825V6.22269H21.1554C21.3912 6.22269 21.6173 6.31634 21.784 6.48304C21.9507 6.64974 22.0443 6.87583 22.0443 7.11158V8.71158H9.99989L10.0354 7.06714ZM22.9421 15.2716L14.8354 23.3782L10.1777 18.7205C9.94192 18.4847 9.80948 18.165 9.80948 17.8316C9.80948 17.4982 9.94192 17.1784 10.1777 16.9427C10.4134 16.7069 10.7332 16.5745 11.0666 16.5745C11.4 16.5745 11.7197 16.7069 11.9554 16.9427L14.8532 19.8405L21.1999 13.4938C21.4356 13.2581 21.7554 13.1256 22.0888 13.1256C22.4222 13.1256 22.7419 13.2581 22.9777 13.4938C23.2134 13.7296 23.3459 14.0493 23.3459 14.3827C23.3459 14.7161 23.2134 15.0358 22.9777 15.2716H22.9421Z" fill="white"/>
</g>
<defs>
<clipPath id="clip0_77_467">
<rect width="32" height="32" fill="white"/>
</clipPath>
</defs>
</svg>
