<svg width="18" height="20" viewBox="0 0 18 20" fill="none" xmlns="http://www.w3.org/2000/svg">
<path d="M5.30534 18.258C5.73669 18.8035 6.28635 19.2438 6.91279 19.5457C7.53924 19.8475 8.2261 20.0031 8.92149 20.0007C9.61688 20.0031 10.3037 19.8475 10.9302 19.5457C11.5566 19.2438 12.1063 18.8035 12.5376 18.258C10.1378 18.5828 7.70517 18.5828 5.30534 18.258ZM15.6126 7.11417V7.81202C15.6126 8.64964 15.8505 9.46843 16.2985 10.1653L17.3968 11.8733C18.399 13.4335 17.6338 15.5538 15.8901 16.0465C11.334 17.3368 6.50902 17.3368 1.95286 16.0465C0.209219 15.5538 -0.556041 13.4335 0.446133 11.8733L1.54446 10.1653C1.99372 9.46268 2.23212 8.64599 2.23141 7.81202V7.11417C2.23141 3.28192 5.22703 0.175278 8.92149 0.175278C12.616 0.175278 15.6126 3.28192 15.6126 7.11417Z" fill="white"/>
</svg>
