<svg width="26" height="24" viewBox="0 0 26 24" fill="none" xmlns="http://www.w3.org/2000/svg">
<path d="M22.1 4H18.2V2.66667C18.2 1.95942 17.9261 1.28115 17.4385 0.781048C16.9509 0.280951 16.2896 0 15.6 0H10.4C9.71044 0 9.04912 0.280951 8.56152 0.781048C8.07393 1.28115 7.8 1.95942 7.8 2.66667V4H3.9C2.86566 4 1.87368 4.42143 1.14228 5.17157C0.410892 5.92172 0 6.93913 0 8V20C0 21.0609 0.410892 22.0783 1.14228 22.8284C1.87368 23.5786 2.86566 24 3.9 24H22.1C23.1343 24 24.1263 23.5786 24.8577 22.8284C25.5891 22.0783 26 21.0609 26 20V8C26 6.93913 25.5891 5.92172 24.8577 5.17157C24.1263 4.42143 23.1343 4 22.1 4ZM10.4 2.66667H15.6V4H10.4V2.66667ZM23.4 20C23.4 20.3536 23.263 20.6928 23.0192 20.9428C22.7754 21.1929 22.4448 21.3333 22.1 21.3333H3.9C3.55522 21.3333 3.22456 21.1929 2.98076 20.9428C2.73696 20.6928 2.6 20.3536 2.6 20V12.52L8.684 14.6667C8.82205 14.6857 8.96196 14.6857 9.1 14.6667H16.9C17.041 14.6638 17.1809 14.6414 17.316 14.6L23.4 12.52V20ZM23.4 9.70667L16.692 12H9.308L2.6 9.70667V8C2.6 7.64638 2.73696 7.30724 2.98076 7.05719C3.22456 6.80714 3.55522 6.66667 3.9 6.66667H22.1C22.4448 6.66667 22.7754 6.80714 23.0192 7.05719C23.263 7.30724 23.4 7.64638 23.4 8V9.70667Z" fill="white" fill-opacity="1"/>
</svg>
