<svg width="16" height="16" viewBox="0 0 16 16" fill="none" xmlns="http://www.w3.org/2000/svg">
<path d="M7.99992 5.83333C7.42528 5.83333 6.87418 6.06161 6.46785 6.46793C6.06153 6.87426 5.83325 7.42536 5.83325 8C5.83325 8.57463 6.06153 9.12573 6.46785 9.53206C6.87418 9.93839 7.42528 10.1667 7.99992 10.1667C8.57455 10.1667 9.12565 9.93839 9.53198 9.53206C9.93831 9.12573 10.1666 8.57463 10.1666 8C10.1666 7.42536 9.93831 6.87426 9.53198 6.46793C9.12565 6.06161 8.57455 5.83333 7.99992 5.83333Z" fill="white"/>
<path fill-rule="evenodd" clip-rule="evenodd" d="M4.51341 2.05466C6.83077 1.79795 9.16939 1.79795 11.4867 2.05466C12.7527 2.196 13.7734 3.19266 13.9221 4.46333C14.1967 6.81311 14.1967 9.18688 13.9221 11.5367C13.7734 12.8073 12.7527 13.804 11.4874 13.946C9.16984 14.2028 6.83099 14.2028 4.51341 13.946C3.24741 13.804 2.22675 12.8073 2.07808 11.5373C1.8034 9.18733 1.8034 6.81333 2.07808 4.46333C2.22675 3.19266 3.24741 2.196 4.51341 2.05466ZM11.3334 4C11.1566 4 10.987 4.07024 10.862 4.19526C10.737 4.32028 10.6667 4.48985 10.6667 4.66666C10.6667 4.84348 10.737 5.01305 10.862 5.13807C10.987 5.26309 11.1566 5.33333 11.3334 5.33333C11.5102 5.33333 11.6798 5.26309 11.8048 5.13807C11.9298 5.01305 12.0001 4.84348 12.0001 4.66666C12.0001 4.48985 11.9298 4.32028 11.8048 4.19526C11.6798 4.07024 11.5102 4 11.3334 4ZM4.83341 8C4.83341 7.16015 5.16704 6.35469 5.76091 5.76083C6.35477 5.16696 7.16023 4.83333 8.00008 4.83333C8.83993 4.83333 9.64538 5.16696 10.2392 5.76083C10.8331 6.35469 11.1667 7.16015 11.1667 8C11.1667 8.83985 10.8331 9.6453 10.2392 10.2392C9.64538 10.833 8.83993 11.1667 8.00008 11.1667C7.16023 11.1667 6.35477 10.833 5.76091 10.2392C5.16704 9.6453 4.83341 8.83985 4.83341 8Z" fill="white"/>
</svg>
