<svg width="34" height="24" viewBox="0 0 34 24" fill="none" xmlns="http://www.w3.org/2000/svg">
<path d="M19.4286 9.6C19.4286 10.873 18.9168 12.0939 18.0059 12.9941C17.0951 13.8943 15.8596 14.4 14.5714 14.4C13.2832 14.4 12.0478 13.8943 11.1369 12.9941C10.226 12.0939 9.71429 10.873 9.71429 9.6C9.71429 8.32696 10.226 7.10606 11.1369 6.20589C12.0478 5.30571 13.2832 4.8 14.5714 4.8C15.8596 4.8 17.0951 5.30571 18.0059 6.20589C18.9168 7.10606 19.4286 8.32696 19.4286 9.6ZM17 9.6C17 8.96348 16.7441 8.35303 16.2887 7.90294C15.8332 7.45286 15.2155 7.2 14.5714 7.2C13.9273 7.2 13.3096 7.45286 12.8542 7.90294C12.3987 8.35303 12.1429 8.96348 12.1429 9.6C12.1429 10.2365 12.3987 10.847 12.8542 11.2971C13.3096 11.7471 13.9273 12 14.5714 12C15.2155 12 15.8332 11.7471 16.2887 11.2971C16.7441 10.847 17 10.2365 17 9.6ZM0 3C0 1.344 1.36 0 3.03571 0H26.1071C27.7829 0 29.1429 1.344 29.1429 3V16.2C29.1429 17.856 27.7829 19.2 26.1071 19.2H3.03571C1.36 19.2 0 17.856 0 16.2V3ZM3.03571 2.4C2.87469 2.4 2.72026 2.46321 2.6064 2.57574C2.49254 2.68826 2.42857 2.84087 2.42857 3V4.8H3.64286C3.96491 4.8 4.27376 4.67357 4.50149 4.44853C4.72921 4.22348 4.85714 3.91826 4.85714 3.6V2.4H3.03571ZM2.42857 16.2C2.42857 16.5312 2.70057 16.8 3.03571 16.8H4.85714V15.6C4.85714 15.2817 4.72921 14.9765 4.50149 14.7515C4.27376 14.5264 3.96491 14.4 3.64286 14.4H2.42857V16.2ZM7.28571 15.6V16.8H21.8571V15.6C21.8571 14.6452 22.2409 13.7295 22.9241 13.0544C23.6073 12.3793 24.5339 12 25.5 12H26.7143V7.2H25.5C24.5339 7.2 23.6073 6.82072 22.9241 6.14559C22.2409 5.47045 21.8571 4.55478 21.8571 3.6V2.4H7.28571V3.6C7.28571 4.55478 6.90191 5.47045 6.21875 6.14559C5.53558 6.82072 4.609 7.2 3.64286 7.2H2.42857V12H3.64286C4.609 12 5.53558 12.3793 6.21875 13.0544C6.90191 13.7295 7.28571 14.6452 7.28571 15.6ZM24.2857 16.8H26.1071C26.2682 16.8 26.4226 16.7368 26.5365 16.6243C26.6503 16.5117 26.7143 16.3591 26.7143 16.2V14.4H25.5C25.178 14.4 24.8691 14.5264 24.6414 14.7515C24.4136 14.9765 24.2857 15.2817 24.2857 15.6V16.8ZM26.7143 4.8V3C26.7143 2.84087 26.6503 2.68826 26.5365 2.57574C26.4226 2.46321 26.2682 2.4 26.1071 2.4H24.2857V3.6C24.2857 3.91826 24.4136 4.22348 24.6414 4.44853C24.8691 4.67357 25.178 4.8 25.5 4.8H26.7143ZM8.5 24C7.73068 24.0003 6.98101 23.7599 6.35845 23.3132C5.73589 22.8666 5.27241 22.2366 5.03443 21.5136C5.37119 21.5712 5.71686 21.6 6.07143 21.6H26.1071C27.5564 21.6 28.9462 21.0311 29.971 20.0184C30.9957 19.0057 31.5714 17.6322 31.5714 16.2V5.004C32.282 5.25226 32.8971 5.7122 33.3321 6.32042C33.767 6.92865 34.0004 7.65522 34 8.4V16.2C34 17.2243 33.7958 18.2386 33.3992 19.1849C33.0025 20.1313 32.4212 20.9911 31.6882 21.7154C30.9553 22.4397 30.0852 23.0143 29.1276 23.4063C28.17 23.7982 27.1436 24 26.1071 24H8.5Z" fill="white"/>
</svg>
