<svg width="28" height="28" viewBox="0 0 28 28" fill="none" xmlns="http://www.w3.org/2000/svg">
<path d="M14 26C20.6276 26 26 20.6276 26 14C26 7.3724 20.6276 2 14 2C7.3724 2 2 7.3724 2 14C2 20.6276 7.3724 26 14 26Z" stroke="white" stroke-opacity="0.5" stroke-width="2.5" stroke-miterlimit="10" stroke-linejoin="round"/>
<path d="M13.9998 15.2008C14.3181 15.2008 14.6233 15.0744 14.8483 14.8493C15.0734 14.6243 15.1998 14.319 15.1998 14.0008C15.1998 13.6825 15.0734 13.3773 14.8483 13.1523C14.6233 12.9272 14.3181 12.8008 13.9998 12.8008C13.6815 12.8008 13.3763 12.9272 13.1513 13.1523C12.9262 13.3773 12.7998 13.6825 12.7998 14.0008C12.7998 14.319 12.9262 14.6243 13.1513 14.8493C13.3763 15.0744 13.6815 15.2008 13.9998 15.2008ZM7.9998 15.2008C8.31806 15.2008 8.62329 15.0744 8.84833 14.8493C9.07338 14.6243 9.1998 14.319 9.1998 14.0008C9.1998 13.6825 9.07338 13.3773 8.84833 13.1523C8.62329 12.9272 8.31806 12.8008 7.9998 12.8008C7.68154 12.8008 7.37632 12.9272 7.15128 13.1523C6.92623 13.3773 6.7998 13.6825 6.7998 14.0008C6.7998 14.319 6.92623 14.6243 7.15128 14.8493C7.37632 15.0744 7.68154 15.2008 7.9998 15.2008ZM19.9998 15.2008C20.3181 15.2008 20.6233 15.0744 20.8483 14.8493C21.0734 14.6243 21.1998 14.319 21.1998 14.0008C21.1998 13.6825 21.0734 13.3773 20.8483 13.1523C20.6233 12.9272 20.3181 12.8008 19.9998 12.8008C19.6815 12.8008 19.3763 12.9272 19.1513 13.1523C18.9262 13.3773 18.7998 13.6825 18.7998 14.0008C18.7998 14.319 18.9262 14.6243 19.1513 14.8493C19.3763 15.0744 19.6815 15.2008 19.9998 15.2008Z" stroke="white" stroke-opacity="0.5" stroke-width="2" stroke-miterlimit="10" stroke-linejoin="round"/>
</svg>
