<svg width="28" height="28" viewBox="0 0 28 28" fill="none" xmlns="http://www.w3.org/2000/svg">
<path d="M14 18.5L18.5 14M18.5 14L14 9.5M18.5 14H2M2 6.872V6.8C2 5.12 2 4.28 2.327 3.638C2.615 3.0725 3.0725 2.615 3.638 2.327C4.28 2 5.12 2 6.8 2H21.2C22.88 2 23.72 2 24.3605 2.327C24.926 2.615 25.385 3.0725 25.673 3.638C26 4.2785 26 5.1185 26 6.7955V21.206C26 22.883 26 23.7215 25.673 24.362C25.385 24.9267 24.9255 25.3856 24.3605 25.673C23.72 26 22.8815 26 21.2045 26H6.7955C5.1185 26 4.2785 26 3.638 25.673C3.07354 25.3854 2.61462 24.9265 2.327 24.362C2 23.72 2 22.88 2 21.2V21.125" stroke="white" stroke-opacity="0.5" stroke-width="2.5" stroke-linecap="round" stroke-linejoin="round"/>
</svg>
