<svg width="34" height="28" viewBox="0 0 34 28" fill="none" xmlns="http://www.w3.org/2000/svg">
<path d="M19.25 12.5C20.6424 12.5 21.9777 11.9469 22.9623 10.9623C23.9469 9.97774 24.5 8.64239 24.5 7.25C24.5 5.85761 23.9469 4.52226 22.9623 3.53769C21.9777 2.55312 20.6424 2 19.25 2M18.7145 26H4.7855C3.2465 26 2 24.8495 2 23.429C2 19.8785 5.1185 17 8.9645 17H14.5355C16.0266 16.9947 17.4842 17.443 18.7145 18.2855M27.5 17V26M32 21.5H23M17 7.25C17 8.64239 16.4469 9.97774 15.4623 10.9623C14.4777 11.9469 13.1424 12.5 11.75 12.5C10.3576 12.5 9.02226 11.9469 8.03769 10.9623C7.05312 9.97774 6.5 8.64239 6.5 7.25C6.5 5.85761 7.05312 4.52226 8.03769 3.53769C9.02226 2.55312 10.3576 2 11.75 2C13.1424 2 14.4777 2.55312 15.4623 3.53769C16.4469 4.52226 17 5.85761 17 7.25Z" stroke="white" stroke-width="2.5" stroke-linecap="round" stroke-linejoin="round"/>
</svg>
