<svg width="28" height="24" viewBox="0 0 28 24" fill="none" xmlns="http://www.w3.org/2000/svg">
<path d="M7.6349 0.196068C7.57393 0.133921 7.50149 0.084611 7.42172 0.0509652C7.34195 0.0173195 7.25643 0 7.17006 0C7.08368 0 6.99816 0.0173195 6.91839 0.0509652C6.83863 0.084611 6.76618 0.133921 6.70521 0.196068L3.22271 3.71305L1.9813 2.48425C1.92033 2.4221 1.84789 2.37279 1.76812 2.33914C1.68835 2.3055 1.60283 2.28818 1.51646 2.28818C1.43008 2.28818 1.34456 2.3055 1.26479 2.33914C1.18503 2.37279 1.11258 2.4221 1.05161 2.48425L0.193018 3.35752C0.131838 3.41945 0.0832947 3.49304 0.0501723 3.57407C0.01705 3.6551 0 3.74197 0 3.82971C0 3.91745 0.01705 4.00432 0.0501723 4.08535C0.0832947 4.16638 0.131838 4.23997 0.193018 4.3019L2.7956 6.93505C2.92551 7.06049 3.09789 7.13044 3.27712 7.13044C3.45636 7.13044 3.62874 7.06049 3.75865 6.93505L4.61123 6.06733L8.55967 2.05705C8.68269 1.93199 8.7522 1.76269 8.75313 1.58589C8.75405 1.40909 8.6863 1.23905 8.56459 1.11267L7.6349 0.196068ZM7.6349 9.03935C7.57393 8.97721 7.50149 8.9279 7.42172 8.89425C7.34195 8.86061 7.25643 8.84329 7.17006 8.84329C7.08368 8.84329 6.99816 8.86061 6.91839 8.89425C6.83863 8.9279 6.76618 8.97721 6.70521 9.03935L3.22271 12.5791L1.9813 11.3514C1.92033 11.2893 1.84789 11.24 1.76812 11.2063C1.68835 11.1727 1.60283 11.1554 1.51646 11.1554C1.43008 11.1554 1.34456 11.1727 1.26479 11.2063C1.18503 11.24 1.11258 11.2893 1.05161 11.3514L0.193018 12.223C0.131838 12.285 0.0832947 12.3585 0.0501723 12.4396C0.01705 12.5206 0 12.6075 0 12.6952C0 12.783 0.01705 12.8698 0.0501723 12.9509C0.0832947 13.0319 0.131838 13.1055 0.193018 13.1674L2.78904 15.8061C2.91885 15.9315 3.09114 16.0014 3.27029 16.0014C3.44943 16.0014 3.62172 15.9315 3.75154 15.8061L4.61013 14.9345L8.55857 10.9226C8.68113 10.7984 8.75041 10.63 8.75133 10.4542C8.75225 10.2783 8.68474 10.1092 8.5635 9.98373L7.6349 9.03935ZM3.49997 18.667C2.0513 18.667 0.842706 19.8614 0.842706 21.3335C0.842706 22.8056 2.05239 24 3.49997 24C4.19617 24 4.86385 23.7191 5.35613 23.219C5.84842 22.7189 6.12498 22.0407 6.12498 21.3335C6.12498 20.6263 5.84842 19.9481 5.35613 19.448C4.86385 18.948 4.19617 18.667 3.49997 18.667ZM27.125 19.5559H11.375C11.1429 19.5559 10.9204 19.6495 10.7563 19.8162C10.5922 19.9829 10.5 20.209 10.5 20.4447V22.2223C10.5 22.4581 10.5922 22.6842 10.7563 22.8508C10.9204 23.0175 11.1429 23.1112 11.375 23.1112H27.125C27.3571 23.1112 27.5796 23.0175 27.7437 22.8508C27.9078 22.6842 28 22.4581 28 22.2223V20.4447C28 20.209 27.9078 19.9829 27.7437 19.8162C27.5796 19.6495 27.3571 19.5559 27.125 19.5559ZM27.125 1.77929H11.375C11.1429 1.77929 10.9204 1.87294 10.7563 2.03963C10.5922 2.20631 10.5 2.43239 10.5 2.66812V4.44578C10.5 4.68151 10.5922 4.90759 10.7563 5.07427C10.9204 5.24096 11.1429 5.33461 11.375 5.33461H27.125C27.3571 5.33461 27.5796 5.24096 27.7437 5.07427C27.9078 4.90759 28 4.68151 28 4.44578V2.66812C28 2.43239 27.9078 2.20631 27.7437 2.03963C27.5796 1.87294 27.3571 1.77929 27.125 1.77929ZM27.125 10.6676H11.375C11.1429 10.6676 10.9204 10.7612 10.7563 10.9279C10.5922 11.0946 10.5 11.3207 10.5 11.5564V13.3341C10.5 13.5698 10.5922 13.7959 10.7563 13.9626C10.9204 14.1292 11.1429 14.2229 11.375 14.2229H27.125C27.3571 14.2229 27.5796 14.1292 27.7437 13.9626C27.9078 13.7959 28 13.5698 28 13.3341V11.5564C28 11.3207 27.9078 11.0946 27.7437 10.9279C27.5796 10.7612 27.3571 10.6676 27.125 10.6676Z" fill="white" fill-opacity="1"/>
</svg>
