<svg width="16" height="16" viewBox="0 0 16 16" fill="none" xmlns="http://www.w3.org/2000/svg">
<path fill-rule="evenodd" clip-rule="evenodd" d="M13.1846 2.95333C13.3493 2.88399 13.5297 2.86008 13.7068 2.88408C13.8839 2.90808 14.0514 2.97911 14.1917 3.08979C14.3321 3.20047 14.4402 3.34674 14.5048 3.51339C14.5695 3.68003 14.5883 3.86096 14.5593 4.03733L13.0473 13.2087C12.9006 14.0933 11.9299 14.6007 11.1186 14.16C10.4399 13.7913 9.43193 13.2233 8.52526 12.6307C8.07193 12.334 6.68327 11.384 6.85393 10.708C7.0006 10.13 9.33393 7.958 10.6673 6.66667C11.1906 6.15933 10.9519 5.86667 10.3339 6.33333C8.79926 7.492 6.33526 9.254 5.5206 9.75C4.80193 10.1873 4.42726 10.262 3.97926 10.1873C3.16193 10.0513 2.40393 9.84067 1.78527 9.584C0.949265 9.23733 0.989932 8.088 1.7846 7.75333L13.1846 2.95333Z" fill="white"/>
</svg>
