<svg width="16" height="16" viewBox="0 0 16 16" fill="none" xmlns="http://www.w3.org/2000/svg">
<path d="M6.66658 10L10.1266 8L6.66658 6V10ZM14.3733 4.78C14.4599 5.09333 14.5199 5.51333 14.5599 6.04666C14.6066 6.58 14.6266 7.04 14.6266 7.44L14.6666 8C14.6666 9.46 14.5599 10.5333 14.3733 11.22C14.2066 11.82 13.8199 12.2067 13.2199 12.3733C12.9066 12.46 12.3333 12.52 11.4533 12.56C10.5866 12.6067 9.79325 12.6267 9.05992 12.6267L7.99992 12.6667C5.20658 12.6667 3.46659 12.56 2.77992 12.3733C2.17992 12.2067 1.79325 11.82 1.62659 11.22C1.53992 10.9067 1.47992 10.4867 1.43992 9.95333C1.39325 9.42 1.37325 8.96 1.37325 8.56L1.33325 8C1.33325 6.54 1.43992 5.46667 1.62659 4.78C1.79325 4.18 2.17992 3.79333 2.77992 3.62667C3.09325 3.54 3.66659 3.48 4.54659 3.44C5.41325 3.39333 6.20658 3.37333 6.93992 3.37333L7.99992 3.33333C10.7933 3.33333 12.5333 3.44 13.2199 3.62667C13.8199 3.79333 14.2066 4.18 14.3733 4.78Z" fill="white"/>
</svg>
